<?xml version="1.0" encoding="UTF-8" standalone="no"?>
<!-- Created with Inkscape (http://www.inkscape.org/) -->

<svg
   xmlns:dc="http://purl.org/dc/elements/1.1/"
   xmlns:cc="http://creativecommons.org/ns#"
   xmlns:rdf="http://www.w3.org/1999/02/22-rdf-syntax-ns#"
   xmlns:svg="http://www.w3.org/2000/svg"
   xmlns="http://www.w3.org/2000/svg"
   xmlns:sodipodi="http://sodipodi.sourceforge.net/DTD/sodipodi-0.dtd"
   xmlns:inkscape="http://www.inkscape.org/namespaces/inkscape"
   width="210mm"
   height="297mm"
   viewBox="0 0 210 297"
   version="1.1"
   id="svg8"
   inkscape:version="0.92.4 (unknown)"
   sodipodi:docname="github_logo.svg">
  <defs
     id="defs2" />
  <sodipodi:namedview
     id="base"
     pagecolor="#ffffff"
     bordercolor="#666666"
     borderopacity="1.0"
     inkscape:pageopacity="0.0"
     inkscape:pageshadow="2"
     inkscape:zoom="0.49497475"
     inkscape:cx="400"
     inkscape:cy="560"
     inkscape:document-units="mm"
     inkscape:current-layer="layer1"
     showgrid="false"
     inkscape:window-width="1299"
     inkscape:window-height="713"
     inkscape:window-x="67"
     inkscape:window-y="27"
     inkscape:window-maximized="1" />
  <metadata
     id="metadata5">
    <rdf:RDF>
      <cc:Work
         rdf:about="">
        <dc:format>image/svg+xml</dc:format>
        <dc:type
           rdf:resource="http://purl.org/dc/dcmitype/StillImage" />
        <dc:title></dc:title>
      </cc:Work>
    </rdf:RDF>
  </metadata>
  <g
     inkscape:label="Layer 1"
     inkscape:groupmode="layer"
     id="layer1">
    <path
       style="fill:#000000;stroke-width:0.2542738"
       d="m 11.794712,186.61426 v -1.32291 H 9.3510526 6.9073922 v -1.32292 -1.32292 H 5.6855623 4.4637322 v -2.64583 -2.64583 h -1.22183 -1.2218301 v -15.875 -15.875 h 1.2218301 1.22183 v -2.64584 -2.64583 h 1.2218301 1.2218299 v -1.32292 -1.32291 h 2.4436604 2.4436594 v -1.32292 -1.32292 h 90.415428 90.41542 v 1.32292 1.32292 h 2.44366 2.44366 v 1.32291 1.32292 h 1.22183 1.22183 v 2.64583 2.64584 h 1.22183 1.22183 v 14.55208 14.55208 h -1.22183 -1.22183 v 2.64584 2.64583 h -1.22183 -1.22183 v 1.32292 1.32291 h -2.44366 -2.44366 v 1.32292 1.32292 h -1.22183 -1.22183 v 1.32291 1.32292 H 100.98831 11.794712 Z m 175.943528,-2.64583 v -1.32292 h 1.22183 1.22183 v -21.16666 -21.16667 h -1.22183 -1.22183 v -1.32292 -1.32291 H 152.30517 116.8721 v 1.32291 1.32292 h -1.22183 -1.22183 v 21.16667 21.16666 h 1.22183 1.22183 v 1.32292 1.32292 h 35.43307 35.43307 z m -68.42248,-21.16667 v -19.84375 h 2.44366 2.44366 v 6.61459 6.61458 h 4.88732 4.88732 v 1.32292 1.32291 h 1.22183 1.22183 v 1.32292 1.32292 h 1.22183 1.22183 v 10.58333 10.58333 h -2.44366 -2.44366 v -9.26041 -9.26042 h -1.22183 -1.22183 v -1.32292 -1.32291 h -2.44366 -2.44366 v 1.32291 1.32292 h -1.22183 -1.22183 v 9.26042 9.26041 h -2.44366 -2.44366 z m 26.88026,18.52084 v -1.32292 h -1.22183 -1.22183 v -7.9375 -7.9375 h 2.44366 2.44366 v 6.61458 6.61459 h 3.66549 3.66549 v -6.61459 -6.61458 h 3.66549 3.66549 v 9.26042 9.26041 h -2.44366 -2.44366 v -1.32291 -1.32292 h -1.22183 -1.22183 v 1.32292 1.32291 h -4.88732 -4.88732 z m 21.99294,-17.19792 v -18.52083 h 2.44366 2.44366 v 7.9375 7.9375 h 3.66549 3.66549 v 1.32291 1.32292 h 1.22183 1.22183 v 1.32292 1.32291 h 1.22183 1.22183 v 5.29167 5.29167 h -1.22183 -1.22183 v 1.32291 1.32292 h -1.22183 -1.22183 v 1.32292 1.32291 h -6.10915 -6.10915 z m 9.77464,11.90625 v -1.32292 h 1.22183 1.22183 v -2.64583 -2.64583 h -1.22183 -1.22183 v -1.32292 -1.32292 h -2.44366 -2.44366 v 5.29167 5.29167 h 2.44366 2.44366 z M 48.449614,181.3226 v -1.32292 h 1.22183 1.22183 v -7.9375 -7.9375 h -6.10915 -6.10915 v 1.32292 1.32291 h 3.66549 3.66549 v 5.29167 5.29167 h -7.33098 -7.330981 v -13.22917 -13.22917 h 7.330981 7.33098 v 1.32292 1.32292 h 2.44366 2.44366 v -2.64584 -2.64583 h -1.22183 -1.22183 v -1.32292 -1.32291 h -9.77464 -9.774641 v 1.32291 1.32292 h -1.22183 -1.22183 v 15.875 15.875 h 1.22183 1.22183 v 1.32292 1.32291 h 9.774641 9.77464 z m 19.549281,-7.9375 v -9.26042 h -2.44366 -2.44366 v 9.26042 9.26041 h 2.44366 2.44366 z m 24.436601,7.9375 v -1.32292 h 1.22183 1.22183 v -2.64583 -2.64584 h -2.44366 -2.44366 v 1.32292 1.32292 h -2.44366 -2.44366 V 165.4476 153.54135 h 2.44366 2.44366 v -2.64584 -2.64583 h -2.44366 -2.44366 v -2.64583 -2.64584 h -2.44366 -2.44366 v 2.64584 2.64583 h -2.44366 -2.443661 v 2.64583 2.64584 h 2.443661 2.44366 v 13.22916 13.22917 h 1.22183 1.22183 v 1.32292 1.32291 h 4.88732 4.88732 z M 67.998895,156.18718 v -2.64583 h -2.44366 -2.44366 v 2.64583 2.64583 h 2.44366 2.44366 z"
       id="path68"
       inkscape:connector-curvature="0" />
  </g>
</svg>
